<?xml version="1.0" standalone="no"?><!DOCTYPE svg PUBLIC "-//W3C//DTD SVG 1.1//EN" "http://www.w3.org/Graphics/SVG/1.1/DTD/svg11.dtd"><svg t="1664642351918" class="icon" viewBox="0 0 1024 1024" version="1.1" xmlns="http://www.w3.org/2000/svg" p-id="796" xmlns:xlink="http://www.w3.org/1999/xlink" width="200" height="200"><path d="M886.2 623.6c-20 0-38.8-8-53-22.5L513 272 192.8 601.1c-14.1 14.5-32.9 22.5-53 22.5-20 0-38.8-8-52.9-22.5-28.8-29.6-28.8-77.8 0-107.4L499.6 69.5c7-7.2 19.7-7.2 26.7 0L939 493.7c28.8 29.6 28.8 77.8 0 107.4-14 14.5-32.8 22.5-52.8 22.5zM513 226.6c5 0 9.9 2 13.4 5.6L860 575c7 7.2 16.3 11.2 26.2 11.2 9.9 0 19.2-4 26.2-11.2 14.8-15.3 14.8-40.1 0-55.3L513 109.3 113.6 519.8c-14.8 15.3-14.8 40.1 0 55.3 7 7.2 16.3 11.2 26.2 11.2 9.9 0 19.2-4 26.2-11.2l333.6-342.8c3.5-3.6 8.4-5.7 13.4-5.7z" fill="#1296db" p-id="797"></path><path d="M830.2 959.5H606.3c-10.3 0-18.7-8.3-18.7-18.7V698.3H438.4v242.6c0 10.3-8.3 18.7-18.7 18.7H195.8c-10.3 0-18.7-8.3-18.7-18.7V571.3c0-4.9 1.9-9.5 5.3-13l317.2-326c3.5-3.6 8.3-5.6 13.4-5.6h0.1c5 0 9.9 2.1 13.4 5.7l317.2 329.3c3.3 3.5 5.2 8.1 5.2 12.9v366.2c-0.1 10.3-8.4 18.7-18.7 18.7z m-205.3-37.4h186.6v-340l-298.6-310-298.4 306.7v343.3h186.6V679.6c0-10.3 8.3-18.7 18.7-18.7h186.6c10.3 0 18.7 8.3 18.7 18.7v242.5z" fill="#1296db" p-id="798"></path><path d="M419.7 777.8v-98.2h186.6v10.9c52.6-51.5 90.9-129.5 97.5-247l-88.2-91.6c-4 14.8-69 230.8-419.8 286.4v130.6s107.6 27.2 223.9 8.9z" fill="#1296db" p-id="799"></path><path d="M334.9 802.8c-79.7 0-140.3-15.1-143.7-15.9-8.3-2.1-14.1-9.5-14.1-18.1V638.2c0-9.2 6.7-17 15.7-18.4 341-54 402.3-264 404.7-272.9 1.8-6.5 6.9-11.5 13.4-13.1 6.5-1.7 13.4 0.3 18.1 5.1l88.2 91.6c3.6 3.7 5.5 8.8 5.2 14-6.3 111.3-41 198.5-103.1 259.3-5.4 5.3-13.4 6.8-20.3 3.9-4.4-1.8-7.8-5.2-9.7-9.4h-151v79.5c0 9.2-6.7 17-15.8 18.4-30.3 4.8-60.1 6.6-87.6 6.6z m84.8-25h0.2-0.2z m-205.2-24c30.3 6 105.5 17.8 186.6 7.8v-82c0-10.3 8.3-18.7 18.7-18.7h186.6c0.7 0 1.4 0 2 0.1 44.5-51.6 70.1-122.3 76.3-210.6l-61.9-64.2C593.6 452.6 497.1 604.3 214.5 654v99.8z" fill="#1296db" p-id="800"></path></svg>